<?xml version="1.0" encoding="UTF-8" standalone="no"?>
<svg
   xmlns:dc="http://purl.org/dc/elements/1.1/"
   xmlns:cc="http://creativecommons.org/ns#"
   xmlns:rdf="http://www.w3.org/1999/02/22-rdf-syntax-ns#"
   xmlns:svg="http://www.w3.org/2000/svg"
   xmlns="http://www.w3.org/2000/svg"
   height="512px"
   width="512px"
   xml:space="preserve"
   style="enable-background:new 0 0 31.177 31.177;"
   viewBox="0 0 31.177 31.177"
   y="0px"
   x="0px"
   id="Capa_1"
   version="1.1"><metadata
     id="metadata59"><rdf:RDF><cc:Work
         rdf:about=""><dc:format>image/svg+xml</dc:format><dc:type
           rdf:resource="http://purl.org/dc/dcmitype/StillImage" /><dc:title></dc:title></cc:Work></rdf:RDF></metadata><defs
     id="defs57" /><g
     style="fill:#3030a9;fill-opacity:1"
     id="g3"><g
       style="fill:#3030a9;fill-opacity:1"
       id="g5"><path
         style="fill:#3030a9;fill-opacity:1"
         id="path7"
         fill="#FFFFFF"
         d="M30.252,1.775H0.969c-0.49,0-0.887-0.398-0.887-0.888S0.479,0,0.969,0h29.284    c0.49,0,0.887,0.398,0.887,0.888S30.743,1.775,30.252,1.775z" /></g><g
       style="fill:#3030a9;fill-opacity:1"
       id="g9"><path
         style="fill:#3030a9;fill-opacity:1"
         id="path11"
         fill="#FFFFFF"
         d="M24.692,9.126H6.53c-0.49,0-0.887-0.398-0.887-0.888c0-0.49,0.397-0.888,0.887-0.888h18.162    c0.49,0,0.887,0.397,0.887,0.888C25.579,8.729,25.182,9.126,24.692,9.126z" /></g><g
       style="fill:#3030a9;fill-opacity:1"
       id="g13"><path
         style="fill:#3030a9;fill-opacity:1"
         id="path15"
         fill="#FFFFFF"
         d="M30.252,16.477H0.969c-0.49,0-0.887-0.398-0.887-0.888c0-0.49,0.397-0.888,0.887-0.888h29.284    c0.49,0,0.887,0.397,0.887,0.888C31.14,16.079,30.743,16.477,30.252,16.477z" /></g><g
       style="fill:#3030a9;fill-opacity:1"
       id="g17"><path
         style="fill:#3030a9;fill-opacity:1"
         id="path19"
         fill="#FFFFFF"
         d="M24.692,23.826H6.53c-0.49,0-0.887-0.396-0.887-0.887c0-0.49,0.397-0.888,0.887-0.888h18.162    c0.49,0,0.887,0.397,0.887,0.888C25.579,23.43,25.182,23.826,24.692,23.826z" /></g><g
       style="fill:#3030a9;fill-opacity:1"
       id="g21"><path
         style="fill:#3030a9;fill-opacity:1"
         id="path23"
         fill="#FFFFFF"
         d="M30.208,31.177H0.924c-0.49,0-0.887-0.396-0.887-0.887c0-0.49,0.397-0.888,0.887-0.888h29.284    c0.49,0,0.888,0.398,0.888,0.888C31.096,30.78,30.698,31.177,30.208,31.177z" /></g></g><g
     style="fill:#3030a9;fill-opacity:1"
     id="g25" /><g
     style="fill:#3030a9;fill-opacity:1"
     id="g27" /><g
     style="fill:#3030a9;fill-opacity:1"
     id="g29" /><g
     style="fill:#3030a9;fill-opacity:1"
     id="g31" /><g
     style="fill:#3030a9;fill-opacity:1"
     id="g33" /><g
     style="fill:#3030a9;fill-opacity:1"
     id="g35" /><g
     style="fill:#3030a9;fill-opacity:1"
     id="g37" /><g
     style="fill:#3030a9;fill-opacity:1"
     id="g39" /><g
     style="fill:#3030a9;fill-opacity:1"
     id="g41" /><g
     style="fill:#3030a9;fill-opacity:1"
     id="g43" /><g
     style="fill:#3030a9;fill-opacity:1"
     id="g45" /><g
     style="fill:#3030a9;fill-opacity:1"
     id="g47" /><g
     style="fill:#3030a9;fill-opacity:1"
     id="g49" /><g
     style="fill:#3030a9;fill-opacity:1"
     id="g51" /><g
     style="fill:#3030a9;fill-opacity:1"
     id="g53" /></svg>