<?xml version="1.0" encoding="UTF-8" standalone="no"?>
<svg
   xmlns:dc="http://purl.org/dc/elements/1.1/"
   xmlns:cc="http://creativecommons.org/ns#"
   xmlns:rdf="http://www.w3.org/1999/02/22-rdf-syntax-ns#"
   xmlns:svg="http://www.w3.org/2000/svg"
   xmlns="http://www.w3.org/2000/svg"
   xml:space="preserve"
   style="enable-background:new 0 0 612 612;"
   viewBox="0 0 612 612"
   height="512px"
   width="512px"
   y="0px"
   x="0px"
   id="Capa_1"
   version="1.1"><metadata
     id="metadata44"><rdf:RDF><cc:Work
         rdf:about=""><dc:format>image/svg+xml</dc:format><dc:type
           rdf:resource="http://purl.org/dc/dcmitype/StillImage" /><dc:title></dc:title></cc:Work></rdf:RDF></metadata><defs
     id="defs42" /><g
     style="fill:#3030a9;fill-opacity:1"
     id="g3"><g
       style="fill:#3030a9;fill-opacity:1"
       id="Info"><g
         style="fill:#3030a9;fill-opacity:1"
         id="g6"><path
           style="fill:#3030a9;fill-opacity:1"
           id="path8"
           fill="#FFFFFF"
           d="M306,153c-21.114,0-38.25,17.136-38.25,38.25S284.886,229.5,306,229.5s38.25-17.117,38.25-38.25S327.133,153,306,153z      M306,267.75c-21.114,0-38.25,17.117-38.25,38.25v114.75c0,21.114,17.136,38.25,38.25,38.25s38.25-17.136,38.25-38.25V306     C344.25,284.886,327.133,267.75,306,267.75z M306,0C137.279,0,0,137.279,0,306s137.279,306,306,306s306-137.279,306-306     S474.721,0,306,0z M306,554.625C168.893,554.625,57.375,443.088,57.375,306S168.893,57.375,306,57.375     c137.088,0,248.625,111.537,248.625,248.625S443.088,554.625,306,554.625z" /></g></g></g><g
     id="g10" /><g
     id="g12" /><g
     id="g14" /><g
     id="g16" /><g
     id="g18" /><g
     id="g20" /><g
     id="g22" /><g
     id="g24" /><g
     id="g26" /><g
     id="g28" /><g
     id="g30" /><g
     id="g32" /><g
     id="g34" /><g
     id="g36" /><g
     id="g38" /></svg>